<?xml version="1.0" encoding="UTF-8" standalone="no"?>
<!-- Created with Inkscape (http://www.inkscape.org/) -->

<svg
   xmlns:dc="http://purl.org/dc/elements/1.1/"
   xmlns:cc="http://creativecommons.org/ns#"
   xmlns:rdf="http://www.w3.org/1999/02/22-rdf-syntax-ns#"
   xmlns:svg="http://www.w3.org/2000/svg"
   xmlns="http://www.w3.org/2000/svg"
   xmlns:sodipodi="http://sodipodi.sourceforge.net/DTD/sodipodi-0.dtd"
   xmlns:inkscape="http://www.inkscape.org/namespaces/inkscape"
   width="210mm"
   height="297mm"
   viewBox="0 0 210 297"
   version="1.1"
   id="svg8"
   inkscape:version="0.92.3 (2405546, 2018-03-11)"
   sodipodi:docname="seat code.svg">
  <defs
     id="defs2" />
  <sodipodi:namedview
     id="base"
     pagecolor="#ffffff"
     bordercolor="#666666"
     borderopacity="1.0"
     inkscape:pageopacity="0.0"
     inkscape:pageshadow="2"
     inkscape:zoom="2.8"
     inkscape:cx="161.25192"
     inkscape:cy="35.248893"
     inkscape:document-units="mm"
     inkscape:current-layer="layer1"
     showgrid="false"
     inkscape:window-width="1920"
     inkscape:window-height="1001"
     inkscape:window-x="-9"
     inkscape:window-y="-9"
     inkscape:window-maximized="1" />
  <metadata
     id="metadata5">
    <rdf:RDF>
      <cc:Work
         rdf:about="">
        <dc:format>image/svg+xml</dc:format>
        <dc:type
           rdf:resource="http://purl.org/dc/dcmitype/StillImage" />
        <dc:title></dc:title>
      </cc:Work>
    </rdf:RDF>
  </metadata>
  <g
     inkscape:label="Capa 1"
     inkscape:groupmode="layer"
     id="layer1">
    <path
       style="fill:none;stroke-width:0.17644738;stroke:#c30000;stroke-opacity:1"
       d="m 80.642943,280.22423 c 0.0033,-0.0485 0.796911,-0.46538 1.763645,-0.92635 1.741124,-0.83022 1.77467,-0.83812 3.557625,-0.83812 1.712928,0 1.823847,-0.0229 2.294808,-0.47413 0.37215,-0.35654 0.49489,-0.64036 0.49489,-1.14437 0,-0.64181 0.0447,-0.6928 1.05365,-1.20212 0.579509,-0.29254 1.095619,-0.53188 1.146909,-0.53188 0.0513,0 0.0932,0.73717 0.0932,1.63816 v 1.63817 l -0.92634,0.91237 -0.926349,0.91236 -4.279018,0.0521 c -2.353456,0.0286 -4.276339,0.0124 -4.27307,-0.0362 z m -83.2887763,-0.96787 v -0.96788 l 5.3375327,-0.0467 5.3375343,-0.0467 v -0.44111 -0.44112 l -5.0287513,-0.0978 c -2.76581202,-0.0538 -5.0429288,-0.11337 -5.0602578,-0.13234 -0.01733,-0.019 -0.1562825,-0.15926 -0.3087834,-0.31176 -0.1907433,-0.19074 -0.2772745,-0.60924 -0.2772745,-1.341 0,-0.97446 0.050342,-1.11407 0.5999209,-1.66364 0.329957,-0.32996 0.746814,-0.6011 0.926349,-0.60253 0.17953498,-10e-4 2.7680198,-0.0213 5.7521878,-0.0441 l 5.4257606,-0.0415 -3e-6,0.83813 -4e-6,0.83812 H 4.9414034 -0.17557042 v 0.52934 0.52935 H 4.4919834 c 3.1387253,0 4.8132603,0.0664 5.1124013,0.20268 0.9262803,0.42204 1.2161743,2.23422 0.5259263,3.28766 -0.5630903,0.85939 -1.0385033,0.92084 -7.1241606,0.92084 h -5.6519837 z m 16.7625013,0.65881 c -0.929255,-0.46421 -1.234719,-1.2395 -1.233873,-3.13166 8.82e-4,-2.00565 0.214826,-2.78994 0.892665,-3.2726 0.596628,-0.42484 1.573852,-0.47095 8.237228,-0.38869 l 3.57306,0.0441 v 0.70579 0.70579 H 20.38055 15.175352 v 0.61757 0.61757 h 4.587632 4.587632 v 0.79401 0.79401 h -4.587632 -4.587632 v 0.70579 0.70579 h 5.205198 5.205198 v 0.70579 0.70579 l -5.425757,-3.5e-4 c -4.812098,-1.8e-4 -5.495604,-0.0352 -6.043323,-0.30879 z m 13.94022,-2.64643 c 8.82e-4,-2.85394 0.01542,-2.97369 0.424162,-3.48484 l 0.423285,-0.52934 5.928085,-0.0882 5.928085,-0.0882 -1.41e-4,3.57306 -1.41e-4,3.57306 h -1.058685 -1.058684 v -1.05868 -1.05869 h -4.05829 c -2.232059,0 -4.11784,-0.0199 -4.190625,-0.0441 -0.07278,-0.0243 -0.155974,0.45215 -0.184867,1.05868 l -0.05253,1.1028 h -1.050267 -1.050264 l 8.82e-4,-2.95549 z m 10.585966,-1.81178 v -0.88543 l -4.190625,0.0473 -4.190626,0.0473 -0.05378,0.83812 -0.05378,0.83813 h 4.244404 4.244405 z m 9.841658,2.16467 -0.04883,-2.6026 -2.611655,-0.0489 -2.611654,-0.0489 0.05317,-0.92158 0.05317,-0.92158 h 6.263881 6.263882 l 0.05333,0.92635 0.05333,0.92635 h -2.655931 -2.655932 v 2.64671 2.64671 h -1.053968 -1.053966 z m 15.987228,2.32323 c -0.814979,-0.40205 -0.949806,-0.88817 -0.949806,-3.42449 0,-2.15078 0.02336,-2.30284 0.42559,-2.77074 l 0.425591,-0.49507 5.838435,-0.0882 5.838438,-0.0882 -1.45e-4,0.92369 -1.45e-4,0.92368 -5.161085,0.0468 -5.161086,0.0468 v 1.58803 1.58802 l 5.161086,0.0468 5.161085,0.0468 v 0.96779 0.9678 l -5.51398,-0.004 c -4.599592,-0.003 -5.605186,-0.049 -6.063978,-0.27535 z m 28.8698,-3.25643 v -3.53579 l 5.818967,0.051 5.818973,0.051 0.48902,0.48874 c 0.47579,0.47551 0.49058,0.54962 0.54636,2.73845 0.0537,2.10959 0.0327,2.28104 -0.33841,2.7528 -0.74076,0.94173 -1.07738,0.98968 -6.947603,0.98968 H 93.34154 Z m 10.49659,0.66853 c 0.0614,-0.50949 0.0437,-1.24395 -0.0393,-1.63214 l -0.1509,-0.70579 H 99.634017 95.6201 l -0.0451,1.54999 c -0.0248,0.85249 -0.008,1.58695 0.037,1.63213 0.0452,0.0452 1.889437,0.0822 4.098337,0.0822 h 4.016183 z m 5.8104,2.69632 c -0.20201,-0.0817 -0.58521,-0.40757 -0.85156,-0.72411 -0.4807,-0.57128 -0.48385,-0.59215 -0.42673,-2.82617 0.0537,-2.09929 0.0863,-2.28124 0.48557,-2.7057 0.23541,-0.25028 0.68838,-0.52694 1.0066,-0.61481 0.32418,-0.0895 2.9096,-0.11635 5.87998,-0.061 l 5.30139,0.0987 v 0.67888 0.67887 h -5.3046 -5.3046 l 0.0553,0.57346 0.0553,0.57345 4.63174,0.047 4.63175,0.047 v 0.79642 0.79643 l -4.63175,-0.0167 -4.63174,-0.0167 v 0.67301 0.673 l 5.24931,0.0467 5.24931,0.0467 v 0.70316 0.70316 l -5.51398,-0.0112 c -3.03269,-0.006 -5.67926,-0.0781 -5.88127,-0.15977 z M 58.934303,278.9891 c -0.723149,-0.72315 -0.23307,-1.76448 0.830414,-1.76448 0.90559,0 1.311004,0.93265 0.727738,1.67416 -0.422484,0.5371 -1.073628,0.57484 -1.558152,0.0903 z m 19.585659,-2.34396 v -1.63816 l 0.926349,-0.91429 0.926348,-0.9143 4.278989,-0.0501 c 2.353444,-0.0276 4.275083,-0.0104 4.270323,0.0381 -0.005,0.0485 -0.83093,0.4761 -1.835907,0.95017 -1.820674,0.85884 -1.833283,0.86181 -3.513757,0.82791 -1.501815,-0.0303 -1.745229,0.009 -2.222528,0.36227 -0.452415,0.33448 -0.536001,0.51453 -0.536001,1.15457 0,0.74939 -0.01237,0.76454 -1.053652,1.29018 -0.57951,0.29253 -1.095619,0.53188 -1.146908,0.53188 -0.05129,0 -0.09326,-0.73718 -0.09326,-1.63817 z M 58.934303,275.6366 c -0.694508,-0.69451 -0.220057,-1.76448 0.782413,-1.76448 0.673115,0 1.026172,0.33609 1.026172,0.97685 0,0.99657 -1.114355,1.48186 -1.808585,0.78763 z"
       id="path33"
       inkscape:connector-curvature="0" />
  </g>
</svg>
